<svg width="319" height="204" viewBox="0 0 319 204" fill="none" xmlns="http://www.w3.org/2000/svg">
<g clip-path="url(#clip0_3715_673)">
<path d="M76.3405 198.865H80.9103L83.0844 181.24L76.3398 181.241L76.3405 198.865Z" fill="#A0616A"/>
<path d="M75.175 197.373L84.1745 197.373H84.1748C85.6959 197.373 87.1546 197.977 88.2301 199.053C89.3056 200.128 89.9099 201.587 89.91 203.108V203.294L75.1753 203.295L75.175 197.373Z" fill="#2F2E41"/>
<path d="M106.528 198.865H111.097L113.271 181.24L106.527 181.241L106.528 198.865Z" fill="#A0616A"/>
<path d="M105.362 197.373L114.362 197.373H114.362C115.883 197.373 117.342 197.977 118.417 199.053C119.493 200.128 120.097 201.587 120.097 203.108V203.294L105.362 203.295L105.362 197.373Z" fill="#2F2E41"/>
<path d="M218.315 203.322H12.7404V204H218.315V203.322Z" fill="#E6E6E6"/>
<path d="M72.5144 195.043H84.3521L91.9182 128.798L105.829 195.043H113.817V116.048L75.8407 104.684L72.5144 195.043Z" fill="#2F2E41"/>
<path d="M92.6984 46.397C98.3997 46.397 103.022 41.7754 103.022 36.0745C103.022 30.3735 98.3997 25.7519 92.6984 25.7519C86.997 25.7519 82.3751 30.3735 82.3751 36.0745C82.3751 41.7754 86.997 46.397 92.6984 46.397Z" fill="#A0616A"/>
<path d="M76.6724 106.347C87.7493 115.009 99.976 119.375 113.817 117.711C107.971 97.1881 106.237 76.8207 111.876 56.732L100.234 51.4657L87.1473 50.6341L77.6359 53.4314C76.2979 53.8254 75.1265 54.6482 74.3022 55.7732C73.4778 56.8982 73.0461 58.263 73.0736 59.6574C73.4094 76.7894 72.2704 92.8226 76.6724 106.347Z" fill="#E6E6E6"/>
<path d="M82.8183 30.8839C83.8115 29.0102 85.0733 25.276 87.0779 24.5835C88.1911 24.2144 89.3416 23.9693 90.5086 23.8527L93.9158 25.163L92.0614 23.7209C92.4225 23.6994 92.7833 23.6818 93.1439 23.6682L95.4428 24.5523L94.2667 23.6376C96.4099 23.6156 98.6221 23.8384 100.283 25.143C101.699 26.2552 103.101 30.4684 103.328 32.2543C103.57 33.9627 103.486 35.7017 103.078 37.3784L102.496 37.932C102.292 37.465 102.139 36.9777 102.039 36.4782C101.83 35.5449 101.429 34.6653 100.862 33.8955C100.294 33.1256 99.5728 32.4825 98.743 32.007L98.7113 31.9891C97.7349 31.4396 96.5501 31.4649 95.4303 31.5052L90.1122 31.6966C88.8328 31.7426 87.455 31.8236 86.4575 32.6261C85.7838 33.168 85.3801 33.9681 84.9963 34.7428C84.5006 35.7431 83.532 39.5161 83.532 39.5161C83.532 39.5161 82.984 38.8039 82.7214 39.334C82.3002 37.951 82.0441 36.523 81.9585 35.0798C81.8747 33.6301 82.1711 32.1838 82.8183 30.8839Z" fill="#2F2E41"/>
<path d="M298.574 97.5423H179.398C177.36 97.54 175.407 96.7296 173.966 95.2889C172.525 93.8481 171.715 91.8947 171.712 89.8572V7.68518C171.715 5.64764 172.525 3.69422 173.966 2.25347C175.407 0.812714 177.36 0.0022953 179.398 0H298.574C300.612 0.0022953 302.565 0.812714 304.006 2.25347C305.447 3.69422 306.257 5.64764 306.26 7.68518V89.8572C306.257 91.8947 305.447 93.8481 304.006 95.2889C302.565 96.7296 300.612 97.54 298.574 97.5423ZM179.398 0.678313C177.54 0.680418 175.759 1.41931 174.445 2.73289C173.132 4.04648 172.393 5.82748 172.391 7.68518V89.8572C172.393 91.7149 173.132 93.4959 174.445 94.8094C175.759 96.123 177.54 96.8619 179.398 96.864H298.574C300.432 96.8619 302.213 96.123 303.526 94.8094C304.84 93.4959 305.579 91.7149 305.581 89.8572V7.68518C305.579 5.82748 304.84 4.04648 303.526 2.73289C302.213 1.41931 300.432 0.680418 298.574 0.678313H179.398Z" fill="#F0F0F0"/>
<path d="M159.163 104.441V22.2693C159.165 20.3217 159.94 18.4544 161.317 17.0773C162.694 15.7001 164.562 14.9254 166.509 14.9232H285.685C287.633 14.9254 289.5 15.7001 290.877 17.0773C292.255 18.4544 293.029 20.3217 293.032 22.2693V104.441C293.029 106.389 292.255 108.256 290.877 109.633C289.5 111.01 287.633 111.785 285.685 111.787H166.509C164.562 111.785 162.694 111.01 161.317 109.633C159.94 108.256 159.165 106.389 159.163 104.441Z" fill="#E4E4E4"/>
<path d="M163.85 104.585V22.1241C163.851 21.5238 164.089 20.9482 164.514 20.5236C164.939 20.0991 165.514 19.8603 166.115 19.8596H286.08C286.68 19.8603 287.256 20.0991 287.68 20.5236C288.105 20.9482 288.344 21.5238 288.344 22.1241V104.585C288.344 105.186 288.105 105.761 287.68 106.186C287.256 106.61 286.68 106.849 286.08 106.85H166.115C165.514 106.849 164.939 106.61 164.514 106.186C164.089 105.761 163.851 105.186 163.85 104.585Z" fill="#F4F4F4"/>
<path d="M212.085 184.686C213.929 184.686 215.424 183.192 215.424 181.348C215.424 179.504 213.929 178.01 212.085 178.01C210.241 178.01 208.747 179.504 208.747 181.348C208.747 183.192 210.241 184.686 212.085 184.686Z" fill="#E6E6E6"/>
<path d="M225.996 184.686C227.84 184.686 229.334 183.192 229.334 181.348C229.334 179.504 227.84 178.01 225.996 178.01C224.152 178.01 222.657 179.504 222.657 181.348C222.657 183.192 224.152 184.686 225.996 184.686Z" fill="#E6E6E6"/>
<path d="M239.906 184.686C241.75 184.686 243.245 183.192 243.245 181.348C243.245 179.504 241.75 178.01 239.906 178.01C238.063 178.01 236.568 179.504 236.568 181.348C236.568 183.192 238.063 184.686 239.906 184.686Z" fill="#E6E6E6"/>
<path d="M226.097 87.5914C221.303 87.5914 216.617 86.17 212.631 83.5069C208.645 80.8438 205.539 77.0586 203.704 72.63C201.87 68.2013 201.39 63.3282 202.325 58.6268C203.26 53.9254 205.569 49.6069 208.958 46.2174C212.348 42.8279 216.667 40.5196 221.369 39.5844C226.07 38.6492 230.944 39.1292 235.373 40.9636C239.801 42.798 243.587 45.9044 246.25 49.8901C248.914 53.8757 250.335 58.5616 250.335 63.3551V63.3551C250.328 69.7807 247.772 75.9411 243.228 80.4848C238.684 85.0284 232.523 87.5842 226.097 87.5914Z" fill="#16ABF8"/>
<path d="M235.661 60.9642H228.488V53.7919C228.487 53.1585 228.235 52.5515 227.786 52.104C227.338 51.6565 226.731 51.4051 226.097 51.4051C225.464 51.4051 224.856 51.6565 224.408 52.104C223.96 52.5515 223.707 53.1585 223.706 53.7919V60.9642H216.533C215.9 60.9653 215.293 61.2177 214.845 61.6659C214.398 62.1141 214.146 62.7216 214.146 63.355C214.146 63.9884 214.398 64.5958 214.845 65.0441C215.293 65.4923 215.9 65.7447 216.533 65.7458H223.706V72.9181C223.707 73.5514 223.96 74.1585 224.408 74.606C224.856 75.0535 225.464 75.3048 226.097 75.3048C226.731 75.3048 227.338 75.0535 227.786 74.606C228.235 74.1585 228.487 73.5514 228.488 72.9181V65.7458H235.661C235.975 65.7465 236.286 65.6853 236.577 65.5657C236.867 65.4461 237.131 65.2704 237.354 65.0487C237.576 64.8269 237.753 64.5635 237.874 64.2735C237.995 63.9834 238.057 63.6725 238.057 63.3583C238.058 63.0442 237.996 62.733 237.876 62.4426C237.756 62.1522 237.581 61.8884 237.359 61.666C237.137 61.4437 236.873 61.2673 236.583 61.1468C236.293 61.0264 235.982 60.9644 235.667 60.9642H235.661Z" fill="#F4F4F4"/>
<path d="M49.5167 183.083C48.9895 179.684 47.961 176.383 46.4648 173.286L46.2466 172.835L44.6266 174.631L45.827 171.956L45.7485 171.8C44.6892 169.704 43.5153 167.667 42.232 165.699L41.994 165.335L41.6765 165.687L41.8988 165.191L41.7875 165.024C40.1981 162.64 38.977 161.133 38.9649 161.118L38.6196 160.693L38.3975 161.199C38.3568 161.292 34.3209 170.591 33.7863 179.781L33.7778 179.924L36.4941 183.207L33.724 181.468L33.7288 182.099C33.7372 183.179 33.8107 184.258 33.9489 185.329C34.0709 186.25 34.2145 187.15 34.3797 188.027C34.6415 188.035 34.8962 188.115 35.1162 188.257C34.9249 187.276 34.7599 186.268 34.6212 185.233C34.5142 184.407 34.4468 183.567 34.4199 182.73L39.7779 186.094L34.4719 179.68C34.955 171.911 37.9535 164.084 38.7953 162.018C39.2471 162.604 40.0994 163.741 41.1189 165.261L39.2655 169.392L41.9079 166.463C43.0535 168.246 44.1087 170.085 45.0696 171.974L42.2156 178.336L46.0744 174.058C47.4223 176.956 48.3552 180.029 48.8458 183.188C49.5212 188.289 49.3894 193.19 48.4745 196.987C47.5983 200.624 46.0539 202.86 44.2373 203.121C43.8634 203.173 43.483 203.15 43.1178 203.055C42.825 203.263 42.4727 203.37 42.1136 203.361H42.0145C42.5781 203.674 43.2097 203.844 43.8541 203.855C44.0133 203.855 44.1724 203.844 44.3299 203.821C46.4657 203.514 48.1714 201.148 49.1324 197.159C50.0679 193.276 50.2048 188.28 49.5167 183.083Z" fill="#E6E6E6"/>
<path d="M43.5391 203.587C40.7453 203.587 36.7173 202.05 32.722 199.253C32.1339 198.837 31.5724 198.386 31.0407 197.901L30.5932 197.492L32.2851 197.005L30.0322 196.922L29.9372 196.823C25.7143 192.4 23.0865 186.154 23.0603 186.092L22.855 185.598L23.3889 185.622C23.4421 185.625 24.7115 185.685 26.6194 185.955L26.7383 185.972V185.971L27.1567 186.035C28.7146 186.271 30.258 186.596 31.7795 187.006L31.9419 187.05L32.4495 188.3L32.3725 187.179L32.8383 187.313C35.0456 187.951 37.1421 188.922 39.0546 190.195C45.1305 194.45 48.4925 199.767 46.7153 202.305C46.1078 203.172 44.9896 203.586 43.5391 203.587ZM31.9585 197.805C32.3296 198.119 32.7158 198.418 33.112 198.697C38.6768 202.594 44.6519 204.068 46.1595 201.916C47.6667 199.764 44.2378 194.653 38.6722 190.756C36.9551 189.613 35.0844 188.721 33.1161 188.105L33.4171 192.486L31.4403 187.618C30.1384 187.272 28.8065 186.988 27.4731 186.771L27.6916 189.951L26.331 186.6C25.2769 186.455 24.4271 186.376 23.9103 186.336C24.6149 187.884 26.9435 192.662 30.3331 196.255L36.5503 196.482L31.9585 197.805Z" fill="#E6E6E6"/>
<path d="M83.1651 113.114C83.1627 112.597 83.0469 112.086 82.8259 111.618C82.6049 111.151 82.284 110.737 81.8858 110.407C81.4877 110.077 81.022 109.838 80.5215 109.707C80.021 109.576 79.4979 109.557 78.9891 109.65L72.7938 98.7081L70.2375 103.947L76.1583 114.024C76.3716 114.869 76.8871 115.606 77.6074 116.095C78.3276 116.585 79.2025 116.793 80.0662 116.681C80.9299 116.569 81.7224 116.144 82.2935 115.486C82.8647 114.829 83.1748 113.985 83.1651 113.114V113.114Z" fill="#A0616A"/>
<path d="M110.867 125.277C110.622 124.822 110.48 124.318 110.452 123.801C110.423 123.285 110.508 122.768 110.7 122.288C110.893 121.808 111.188 121.376 111.566 121.022C111.944 120.669 112.394 120.402 112.886 120.242L113.115 107.67L118.503 111.366L117.46 122.738C117.675 123.581 117.573 124.475 117.173 125.249C116.774 126.023 116.104 126.623 115.291 126.936C114.479 127.249 113.579 127.253 112.764 126.947C111.948 126.642 111.273 126.048 110.867 125.277H110.867Z" fill="#A0616A"/>
<path d="M73.346 111.613L77.7811 107.455L75.505 85.0038L78.1384 53.2671C72.418 55.0648 66.2758 59.894 65.2641 65.8039L61.6453 86.944L73.346 111.613Z" fill="#E6E6E6"/>
<path opacity="0.2" d="M75.921 72.9466L72.3173 87.3598L77.7811 107.812L74.2577 88.4685L75.921 72.9466Z" fill="black"/>
<path d="M111.599 119.373L118.806 120.205L117.119 66.6912C117.043 64.3001 116.281 61.9813 114.922 60.0119C113.564 58.0425 111.667 56.5059 109.459 55.5858L106.887 54.5141L107.58 79.5986L111.599 119.373Z" fill="#E6E6E6"/>
<path opacity="0.2" d="M108.901 80.4192L111.682 111.304L106.972 80.6346L108.901 80.4192Z" fill="black"/>
</g>
<defs>
<clipPath id="clip0_3715_673">
<rect width="319" height="204" fill="white"/>
</clipPath>
</defs>
</svg>
